<svg width="15" height="15" viewBox="0 0 15 15" fill="none" xmlns="http://www.w3.org/2000/svg">
<path d="M3.75 1.25H9.375C9.70652 1.25 10.0245 1.3817 10.2589 1.61612C10.4933 1.85054 10.625 2.16848 10.625 2.5V3.125C10.625 3.29076 10.5592 3.44973 10.4419 3.56694C10.3247 3.68415 10.1658 3.75 10 3.75C9.83424 3.75 9.67527 3.68415 9.55806 3.56694C9.44085 3.44973 9.375 3.29076 9.375 3.125V2.5H3.75V12.5H9.375V11.875C9.375 11.7092 9.44085 11.5503 9.55806 11.4331C9.67527 11.3158 9.83424 11.25 10 11.25C10.1658 11.25 10.3247 11.3158 10.4419 11.4331C10.5592 11.5503 10.625 11.7092 10.625 11.875V12.5C10.625 12.8315 10.4933 13.1495 10.2589 13.3839C10.0245 13.6183 9.70652 13.75 9.375 13.75H3.75C3.41848 13.75 3.10054 13.6183 2.86612 13.3839C2.6317 13.1495 2.5 12.8315 2.5 12.5V2.5C2.5 2.16848 2.6317 1.85054 2.86612 1.61612C3.10054 1.3817 3.41848 1.25 3.75 1.25Z" fill="black"/>
<path d="M10.4969 10.1842C10.7406 10.428 11.1344 10.428 11.3781 10.1842L13.6206 7.94171C13.7378 7.8245 13.8036 7.66556 13.8036 7.49983C13.8036 7.33411 13.7378 7.17516 13.6206 7.05796L11.3781 4.81546C11.2593 4.70808 11.1038 4.65045 10.9437 4.6545C10.7836 4.65854 10.6312 4.72394 10.518 4.83717C10.4047 4.95041 10.3393 5.10283 10.3353 5.26292C10.3312 5.42301 10.3889 5.57853 10.4963 5.69733L11.6688 6.87483H6.25C6.08424 6.87483 5.92527 6.94068 5.80806 7.05789C5.69085 7.1751 5.625 7.33407 5.625 7.49983C5.625 7.66559 5.69085 7.82457 5.80806 7.94178C5.92527 8.05899 6.08424 8.12483 6.25 8.12483H11.6688L10.4963 9.30233C10.3796 9.41946 10.3141 9.57808 10.3142 9.7434C10.3144 9.90872 10.38 10.0672 10.4969 10.1842Z" fill="black"/>
</svg>
