<svg width="30" height="32" viewBox="0 0 30 32" fill="none" xmlns="http://www.w3.org/2000/svg">
<path d="M9.00832 31.0242C8.18256 31.0242 7.47566 30.7204 6.88761 30.1128C6.29957 29.5053 6.00555 28.7749 6.00555 27.9217C6.00555 27.0686 6.29957 26.3382 6.88761 25.7307C7.47566 25.1231 8.18256 24.8193 9.00832 24.8193C9.83409 24.8193 10.541 25.1231 11.129 25.7307C11.7171 26.3382 12.0111 27.0686 12.0111 27.9217C12.0111 28.7749 11.7171 29.5053 11.129 30.1128C10.541 30.7204 9.83409 31.0242 9.00832 31.0242ZM24.0222 31.0242C23.1964 31.0242 22.4895 30.7204 21.9015 30.1128C21.3134 29.5053 21.0194 28.7749 21.0194 27.9217C21.0194 27.0686 21.3134 26.3382 21.9015 25.7307C22.4895 25.1231 23.1964 24.8193 24.0222 24.8193C24.848 24.8193 25.5549 25.1231 26.1429 25.7307C26.7309 26.3382 27.025 27.0686 27.025 27.9217C27.025 28.7749 26.7309 29.5053 26.1429 30.1128C25.5549 30.7204 24.848 31.0242 24.0222 31.0242ZM7.73214 6.20483L11.3355 13.9609H21.8452L25.974 6.20483H7.73214ZM6.30583 3.10242H28.4513C29.0268 3.10242 29.4647 3.36741 29.765 3.89741C30.0653 4.42741 30.0778 4.96387 29.8025 5.50679L24.4726 15.4345C24.1974 15.9516 23.8283 16.3523 23.3653 16.6367C22.9024 16.9211 22.3957 17.0633 21.8452 17.0633H10.6598L9.00832 20.1657H27.025V23.2681H9.00832C7.88228 23.2681 7.0315 22.7575 6.45597 21.7363C5.88043 20.7151 5.85541 19.7003 6.3809 18.6921L8.40777 14.8916L3.00277 3.10242H0V0H4.87951L6.30583 3.10242Z" fill="#FAFAFA"/>
</svg>
