<svg width="44" height="44" viewBox="0 0 44 44" fill="none" xmlns="http://www.w3.org/2000/svg">
<path d="M22 3.6665C11.88 3.6665 3.66666 11.8798 3.66666 21.9998C3.66666 32.1198 11.88 40.3332 22 40.3332C32.12 40.3332 40.3333 32.1198 40.3333 21.9998C40.3333 11.8798 32.12 3.6665 22 3.6665ZM22 10.9998C25.5383 10.9998 28.4167 13.8782 28.4167 17.4165C28.4167 20.9548 25.5383 23.8332 22 23.8332C18.4617 23.8332 15.5833 20.9548 15.5833 17.4165C15.5833 13.8782 18.4617 10.9998 22 10.9998ZM22 36.6665C18.2783 36.6665 13.8783 35.1632 10.7433 31.3865C13.9546 28.867 17.9183 27.4976 22 27.4976C26.0817 27.4976 30.0454 28.867 33.2567 31.3865C30.1217 35.1632 25.7217 36.6665 22 36.6665Z" fill="#FAFAFA"/>
</svg>
